<?xml version="1.0" encoding="UTF-8"?>
<svg id="Layer_2" data-name="Layer 2" xmlns="http://www.w3.org/2000/svg" viewBox="0 0 1500 1500">
  <path d="M538.34,492.8v17.03s27.44-4.2,45.19,18.84c3.95,5.12,14.7,24.84,22.87,44.4,32.81,78.53,140.77,323.14,140.77,323.14h16.82s135.12-329.27,146.6-352.74c11.48-23.47,21.3-33.41,52.45-36.19v-14.48h-109.8v15.48s20.8-3.38,30.22,7.05c10.42,11.54-6.06,39.76-29.49,99.12-24.36,61.71-80.39,193.64-80.39,193.64l-110.67-255.37s-12.45-27.74,2.69-38.84c13.16-9.65,27.58-6.76,27.58-6.76v-14.31h-154.84Z"/>
  <path d="M565.39,1262.63s-9.56-35.88,43.81-66.83c53.37-30.95,134.1-74.9,212.14-95.98,78.04-21.08,78.04-37.22,84.77-56.96,6.73-19.73,24.22-70.41,86.11-108.09,0,0,7.18,36.33-15.7,76.24-22.87,39.92-54.72,59.65-54.72,59.65,0,0,42.61-18.61,70.53-39.36,28.85-21.43,25-57.97,32.63-98.78,7.62-40.81,22.87-69.52,44.4-90.15,0,0,14.8,28.7,12.56,64.58-2.24,35.88-26.46,72.66-33.19,78.49,0,0,24.67-18.39,48.44-48.89,23.77-30.5,17.49-49.33,11.21-78.49-6.28-29.15-20.18-78.49,8.07-132.75,0,0,25.12,22.87,31.39,66.38,6.28,43.5-5.38,74-5.38,74,0,0,29.15-55.61,32.74-79.83,3.59-24.22-14.8-52.03-27.81-69.07-13.01-17.04-34.09-54.27-24.22-108.98,0,0,28.44,16.29,47.99,51.58,16.15,29.15,10.76,53.82,16.15,65.03,0,0,4.48-43.95,2.69-74-1.79-30.05-17.94-40.36-32.29-53.37-14.35-13.01-63.24-44.4-63.24-108.98,0,0,26.84,7.69,54.72,34.98,21.53,21.08,35.43,56.96,35.43,56.96,0,0-7.18-35.88-19.73-66.6s-29.38-39.92-48.21-47.76c-18.84-7.85-77.7-38.23-85.44-89.36,0,0,32.63,2.69,58.86,19.85,26.24,17.15,29.26,31.96,42.05,43.39,0,0-26.91-56.51-51.8-75.68-24.89-19.17-69.74-45.75-86.33-126.47,0,0,38.51,9.02,74,43.95,28.7,28.26,28.7,61,41.26,76.24,12.56,15.25,27.81,44.4,41.26,77.14,0,0-4.04-18.39-13.01-44.4-8.97-26.01-11.21-65.93-1.35-99.57,0,0,34.61,25.63,43.5,73.55,8.07,43.5-7.18,100.01-1.35,119.75,5.83,19.73,17.94,47.99,24.22,87.9,0,0-4.48-62.34,0-89.7s22.87-62.79,33.19-71.31c0,0,21.38,37.28,16.15,99.57-4.48,53.37-37.67,96.43-38.57,121.54-.9,25.12,1.35,57.41-8.07,93.73,0,0,4.04-8.07,15.7-48.89s31.17-74.9,66.6-96.43c0,0,9.71,47.19-17.72,107.64-21.98,48.44-67.95,77.81-74.23,104.72-6.28,26.91-20.18,54.94-37.45,83.42,0,0,10.76-10.99,32.74-44.63,21.98-33.64,54.06-65.7,97.67-70.86,0,0-14.81,52.47-51.81,93.17-37,40.7-90.48,54.16-106.29,74.34-12.2,15.58-28.59,39.69-64.92,69.63,0,0,8.97-3.48,38.35-26.12,29.38-22.65,66.83-43.06,123.56-40.81,0,0-19.51,37.67-73.55,67.72-54.04,30.05-92.17,25.12-114.14,31.39s-20.85,17.72-98.89,54.04c0,0,11.21-.9,40.81-12.11,29.6-11.21,75.12-22.65,128.49,1.79,0,0-30.72,31.62-92.39,41.49-61.67,9.87-95.75-5.38-106.29-7.85-10.54-2.47-61.89,7.4-138.14,34.53-76.24,27.13-173.2,86.11-207.96,120.64Z"/>
  <path d="M934.61,1262.63s9.56-35.88-43.81-66.83c-53.37-30.95-134.1-74.9-212.14-95.98-78.04-21.08-78.04-37.22-84.77-56.96-6.73-19.73-24.22-70.41-86.11-108.09,0,0-7.18,36.33,15.7,76.24,22.87,39.92,54.72,59.65,54.72,59.65,0,0-42.61-18.61-70.53-39.36-28.85-21.43-25-57.97-32.63-98.78-7.62-40.81-22.87-69.52-44.4-90.15,0,0-14.8,28.7-12.56,64.58,2.24,35.88,26.46,72.66,33.19,78.49,0,0-24.67-18.39-48.44-48.89-23.77-30.5-17.49-49.33-11.21-78.49,6.28-29.15,20.18-78.49-8.07-132.75,0,0-25.12,22.87-31.39,66.38-6.28,43.5,5.38,74,5.38,74,0,0-29.15-55.61-32.74-79.83-3.59-24.22,14.8-52.03,27.81-69.07,13.01-17.04,34.09-54.27,24.22-108.98,0,0-28.44,16.29-47.99,51.58-16.15,29.15-10.76,53.82-16.15,65.03,0,0-4.48-43.95-2.69-74,1.79-30.05,17.94-40.36,32.29-53.37,14.35-13.01,63.24-44.4,63.24-108.98,0,0-26.84,7.69-54.72,34.98-21.53,21.08-35.43,56.96-35.43,56.96,0,0,7.18-35.88,19.73-66.6,12.56-30.72,29.38-39.92,48.21-47.76,18.84-7.85,77.7-38.23,85.44-89.36,0,0-32.63,2.69-58.86,19.85-26.24,17.15-29.26,31.96-42.05,43.39,0,0,26.91-56.51,51.8-75.68,24.89-19.17,69.74-45.75,86.33-126.47,0,0-38.51,9.02-74,43.95-28.7,28.26-28.7,61-41.26,76.24-12.56,15.25-27.81,44.4-41.26,77.14,0,0,4.04-18.39,13.01-44.4,8.97-26.01,11.21-65.93,1.35-99.57,0,0-34.61,25.63-43.5,73.55-8.07,43.5,7.18,100.01,1.35,119.75-5.83,19.73-17.94,47.99-24.22,87.9,0,0,4.48-62.34,0-89.7-4.48-27.36-22.87-62.79-33.19-71.31,0,0-21.38,37.28-16.15,99.57,4.48,53.37,37.67,96.43,38.57,121.54,.9,25.12-1.35,57.41,8.07,93.73,0,0-4.04-8.07-15.7-48.89-11.66-40.81-31.17-74.9-66.6-96.43,0,0-9.71,47.19,17.72,107.64,21.98,48.44,67.95,77.81,74.23,104.72,6.28,26.91,20.18,54.94,37.45,83.42,0,0-10.76-10.99-32.74-44.63-21.98-33.64-54.06-65.7-97.67-70.86,0,0,14.81,52.47,51.81,93.17,37,40.7,90.48,54.16,106.29,74.34,12.2,15.58,28.59,39.69,64.92,69.63,0,0-8.97-3.48-38.35-26.12-29.38-22.65-66.83-43.06-123.56-40.81,0,0,19.51,37.67,73.55,67.72,54.04,30.05,92.17,25.12,114.14,31.39,21.98,6.28,20.85,17.72,98.89,54.04,0,0-11.21-.9-40.81-12.11-29.6-11.21-75.12-22.65-128.49,1.79,0,0,30.72,31.62,92.39,41.49,61.67,9.87,95.75-5.38,106.29-7.85,10.54-2.47,61.89,7.4,138.14,34.53,76.24,27.13,173.2,86.11,207.96,120.64Z"/>
</svg>